<?xml version="1.0" encoding="UTF-8" standalone="no"?>
<!-- Created with Inkscape (http://www.inkscape.org/) -->
<svg xmlns:rdf="http://www.w3.org/1999/02/22-rdf-syntax-ns#" xmlns="http://www.w3.org/2000/svg" height="336.13" width="336.13" version="1.1" xmlns:cc="http://creativecommons.org/ns#" xmlns:dc="http://purl.org/dc/elements/1.1/">
 <metadata>
  <rdf:RDF>
   <cc:Work rdf:about="">
    <dc:format>image/svg+xml</dc:format>
    <dc:type rdf:resource="http://purl.org/dc/dcmitype/StillImage"/>
    <cc:license rdf:resource=""/>
    <dc:title/>
   </cc:Work>
  </rdf:RDF>
 </metadata>
 <g transform="translate(57.96 56.176)">
  <path d="m107.35 262.14c-11.978-0.5548-23.785-2.9628-33.359-6.8035-4.728-1.8966-12.18-5.9044-18.088-9.7278-6.4642-4.1835-14.26-11.102-18.555-16.466-6.1274-7.6524-10.457-17.706-11.57-26.867-0.72645-5.978-0.25351-14.61 1.2528-22.866 4.173-22.872 14.746-51.154 44.397-118.76 2.5166-5.7378 6.0509-13.712 7.8539-17.721 7.9499-17.675 16.785-37.217 21.035-46.527 2.5322-5.5471 4.604-10.184 4.604-10.305 0-0.12068 0.36609-0.7967 0.81353-1.5022 0.56922-0.89756 1.4265-1.6532 2.8546-2.516l2.0411-1.2333 2.5417 0.2012c2.0897 0.16539 2.7527 0.3408 3.7278 0.98641 1.4882 0.98522 2.6835 2.5947 3.4194 4.6041 1.2981 3.5446 12.87 49.273 28.603 113.03 8.2005 33.231 19.403 77.689 22.795 90.462 5.9224 22.303 6.1874 23.538 5.552 25.882-0.40801 1.505-2.1268 3.4956-3.5933 4.1617-1.5016 0.68205-3.9565 0.68406-5.4526 0.005-1.9087-0.86706-3.5109-3.005-6.2647-8.3594-14.146-27.505-29.1-46.908-44.605-57.878-4.735-3.3499-9.3556-6.0139-15.23-8.7806-7.1083-3.3479-10.811-4.8056-25.071-9.8709-2.8475-1.0115-4.7525-1.9915-4.932-2.5372-0.19851-0.6036 3.8313-0.42776 8.7398 0.38136 17.248 2.8432 33.342 9.2092 45.353 17.939 10.663 7.7504 22.882 20.904 31.442 33.845 0.75509 1.1416 1.4239 2.0246 1.4862 1.9623s-0.66103-2.8178-1.6075-6.1233c-2.137-7.4633-9.2016-33.613-13.451-49.791-1.7551-6.681-4.0936-15.556-5.1968-19.722-1.1032-4.1658-3.3338-12.719-4.9568-19.007-1.6231-6.288-4.3673-16.899-6.0983-23.58s-4.9663-19.221-7.1896-27.867c-4.3463-16.902-9.1759-35.399-9.2712-35.509-0.0587-0.0675-4.0231 8.7159-14.608 32.365-22.001 49.154-36.9 84.361-44.623 105.44-12.327 33.651-15.399 51.64-11.062 64.763 1.0926 3.3055 3.5511 8.1626 5.568 11.001 5.749 8.0891 17.954 17.417 29.758 22.743 8.1034 3.6562 15.214 5.4943 26.659 6.8916 3.8074 0.46483 17.875 0.46083 22.58-0.006 11.789-1.1708 22.902-3.6321 40.158-8.8939 7.3451-2.2398 7.7039-2.384 11.861-4.7676 19.748-11.322 36.186-27.008 48.627-46.403 10.968-17.099 18.602-38.215 21.079-58.307 1.1877-9.6339 1.3443-24.77 0.34599-33.441-2.7116-23.551-11.118-45.886-24.548-65.222-20.609-29.671-51.46-50.249-86.698-57.827-9.5005-2.0432-17.125-2.9329-27.259-3.1807-23.401-0.57237-45.688 4.4445-66.909 15.062-12.376 6.2111-22.448 13.548-32.712 23.848-21.174 21.247-36.355 51.33-42.126 83.484-1.7212 9.5895-2.3425 15.94-2.5209 25.767-0.26107 14.381 0.91277 25.159 4.0762 37.426 2.4961 9.6791 5.5352 17.195 10.944 27.063 1.5698 2.8643 4.685 8.5518 6.9226 12.639 4.8525 8.8634 10.851 20.476 10.851 21.007 0 0.92187-3.9943-5.4034-16.865-26.707-5.915-9.7906-7.4926-12.637-9.8773-17.824-11.074-24.084-13.838-55.375-7.6677-86.803 2.9898-15.229 8.939-32.351 15.764-45.368 7.2489-13.826 14.759-24.492 24.706-35.09 13.015-13.867 27.912-24.111 46.28-31.824 17.169-7.2093 33.704-10.846 52.698-11.59 15.593-0.61083 31.239 1.2701 47.017 5.6523 14.911 4.1414 32.376 12.396 45.016 21.278 20.749 14.578 36.965 33.102 48.315 55.19 8.9473 17.412 13.65 32.89 16.16 53.185 0.7636 6.1751 1.0862 21.813 0.56995 27.627-1.103 12.423-2.7694 21.694-5.7598 32.044-0.63524 2.1986-1.3345 4.4632-1.5538 5.0323-0.21937 0.56912-0.99674 2.7025-1.7274 4.7408-4.7868 13.353-12.391 27.435-20.988 38.868-12.2 16.224-26.677 29.448-42.875 39.164-7.889 4.7318-9.9137 5.5748-22.58 9.4011-17.314 5.2305-30.314 7.7215-44.159 8.4619-5.83 0.31-5.96 0.31-12.86-0.01z"/>
 </g>
</svg>